 <svg
                width="95"
                height="29"
                viewBox="0 0 95 29"
                fill="none"
                xmlns="http://www.w3.org/2000/svg"
              >
                <g clipPath="url(#clip0_137_110)">
                  <path
                    fillRule="evenodd"
                    clipRule="evenodd"
                    d="M94.2551 1.7348C94.7517 2.23149 95 2.83106 95 3.53706C95 4.24306 94.7517 4.84263 94.2551 5.33932C93.7585 5.836 93.1591 6.08434 92.4532 6.08434C91.7474 6.08434 91.1479 5.836 90.6513 5.33577C90.1547 4.83554 89.9064 4.23597 89.9064 3.53706C89.9064 2.83815 90.1547 2.23149 90.6513 1.7348C91.1479 1.23812 91.7474 0.989777 92.4532 0.989777C93.1591 0.989777 93.7585 1.23812 94.2551 1.7348ZM94.0316 5.11581C94.4679 4.67589 94.6878 4.15082 94.6878 3.53706C94.6878 2.9233 94.4679 2.39468 94.0316 1.95831C93.5954 1.52194 93.0668 1.30198 92.4532 1.30198C91.8396 1.30198 91.3111 1.52194 90.8748 1.95831C90.4385 2.39468 90.2186 2.9233 90.2186 3.53706C90.2186 4.15082 90.4385 4.67234 90.8748 5.11226C91.3111 5.55218 91.8396 5.77214 92.4532 5.77214C93.0668 5.77214 93.5954 5.55218 94.0316 5.11581ZM93.3542 4.29628C93.1378 4.58719 92.8576 4.73265 92.5135 4.73265C92.1978 4.73265 91.9318 4.61558 91.7119 4.38497C91.492 4.15437 91.382 3.867 91.382 3.52996C91.382 3.19293 91.492 2.90201 91.7083 2.6785C91.9247 2.455 92.1943 2.34147 92.5135 2.34147C92.8576 2.34147 93.1378 2.48338 93.3471 2.77075L93.6202 2.49757C93.3364 2.16408 92.964 1.99379 92.5135 1.99379C92.0843 1.99379 91.7225 2.13925 91.4246 2.43016C91.1266 2.72108 90.9776 3.0865 90.9776 3.52996C90.9776 3.97343 91.1266 4.3424 91.4246 4.63686C91.7225 4.93132 92.0843 5.08033 92.5135 5.08033C92.9675 5.08033 93.34 4.90649 93.6344 4.56236L93.3542 4.29628Z"
                    fill="black"
                  />
                  <path
                    fillRule="evenodd"
                    clipRule="evenodd"
                    d="M8.08722 27.6972H0V0.989777H24.9108L22.3143 8.0356H8.08722V10.6787H21.3389L18.7389 17.7281H8.08722V27.6972Z"
                    fill="black"
                  />
                  <path
                    fillRule="evenodd"
                    clipRule="evenodd"
                    d="M68.9258 0.989777L72.5615 16.4189L78.3254 0.989777H87.4945L77.6444 27.6972H67.4786L64.3998 15.0353L61.3245 27.6972H51.1552L41.3051 0.989777H50.4742L56.2381 16.4189L59.8774 0.989777H68.9258Z"
                    fill="black"
                  />
                  <path
                    fillRule="evenodd"
                    clipRule="evenodd"
                    d="M48.0409 27.6972H38.8719L37.9106 24.5717H28.3017L27.3405 27.6972H18.1714L28.0251 0.989777H38.1944L48.0445 27.6972H48.0409ZM35.7505 16.6992L33.4343 9.03252H32.7781L30.4619 16.6992H35.7469H35.7505ZM39.6309 26.6648H46.5618L37.4743 2.01862H28.738L19.6505 26.6648H26.5814L27.5427 23.5393H38.6661L39.6274 26.6648H39.6309ZM34.4239 8.73806L34.204 8.00367H32.019L29.0821 17.7316H37.1409L34.4239 8.73806Z"
                    fill="black"
                  />
                  <path
                    d="M29.3942 0H26.2125V3.18233H29.3942V0Z"
                    fill="black"
                  />
                  <path d="M40.1027 0H36.921V3.18233H40.1027V0Z" fill="black" />
                  <path
                    d="M21.0126 25.5048H17.8309V28.6871H21.0126V25.5048Z"
                    fill="black"
                  />
                  <path
                    d="M48.3885 25.5048H45.2068V28.6871H48.3885V25.5048Z"
                    fill="black"
                  />
                </g>
                <defs>
                  <clipPath id="clip0_137_110">
                    <rect width="95" height="28.6871" fill="black" />
                  </clipPath>
                </defs>
              </svg>